<svg xmlns="http://www.w3.org/2000/svg" viewBox="0 0 1560 1230" font-family="Helvetica Neue, Arial, sans-serif">
<style>
 .edge{fill:#fff;stroke:#161616;stroke-width:2.1;stroke-linejoin:round;stroke-linecap:round;}
 .seam{fill:none;stroke:#161616;stroke-width:1.3;}
 .stitch{fill:none;stroke:#161616;stroke-width:1;stroke-dasharray:5 3;}
 .bind{fill:none;stroke:#6f6f6f;stroke-width:1;stroke-dasharray:2 2.4;}
 .band{fill:#efece7;stroke:#161616;stroke-width:1.3;}
 .lead{stroke:#b23a3a;stroke-width:0.9;fill:none;}
 .mrk{fill:#161616;stroke:#fcfbf9;stroke-width:1.3;}
 .mlet{fill:#fff;font-size:11px;font-weight:700;text-anchor:middle;}
 .cap{fill:#555;font-size:11.5px;letter-spacing:.16em;}
 .h1{fill:#111;font-size:26px;font-weight:700;letter-spacing:.02em;}
 .cat{fill:#111;font-size:15px;font-weight:700;letter-spacing:.12em;}
 .sub{fill:#666;font-size:11px;}
 .hlabel{fill:#9a9a9a;font-size:9px;font-weight:700;letter-spacing:.07em;}
 .hval{fill:#222;font-size:11px;}
 .gtitle{fill:#111;font-size:15px;font-weight:600;}
 .note{fill:#444;font-size:10.5px;} .warn{fill:#b23a3a;font-size:11px;font-weight:600;}
 .sec{fill:#111;font-size:12px;font-weight:700;letter-spacing:.06em;}
 .klet{fill:#b23a3a;font-size:11px;font-weight:700;}
 .ktit{fill:#111;font-size:11px;font-weight:600;}
 .ktxt{fill:#555;font-size:10px;}
 .lval{fill:#333;font-size:10.5px;}
 .tsub{fill:#b23a3a;font-size:10.5px;font-weight:700;letter-spacing:.04em;}
 .trow{fill:#333;font-size:10.5px;}
 .tval{fill:#111;font-size:10.5px;font-weight:700;text-anchor:end;}
 .dim{fill:#b23a3a;font-size:9.5px;}
 .dimln{stroke:#b23a3a;stroke-width:0.7;fill:none;}
</style>
<rect x="0" y="0" width="1560" height="1230" fill="#fcfbf9"/>

<!-- ===================== HEADER BLOCK ===================== -->
<text x="60" y="50" class="h1">TE AMO</text>
<text x="1500" y="36" text-anchor="end" class="cat">ACTIVEWEAR</text>
<text x="1500" y="54" text-anchor="end" class="sub">Technical flat · seamless route</text>
<line x1="60" y1="66" x2="1500" y2="66" stroke="#161616" stroke-width="1"/>

<!-- info grid -->
<g>
 <text x="60"   y="92"  class="hlabel">SEASON</text>   <text x="150"  y="92"  class="hval">Autumn · Collection 02</text>
 <text x="60"   y="110" class="hlabel">STYLE #</text>  <text x="150"  y="110" class="hval">AW-001</text>
 <text x="60"   y="128" class="hlabel">BASE SIZE</text><text x="150"  y="128" class="hval">S</text>

 <text x="560"  y="92"  class="hlabel">DESIGNER</text> <text x="655"  y="92"  class="hval">Te Amo Studio</text>
 <text x="560"  y="110" class="hlabel">VENDOR</text>   <text x="655"  y="110" class="hval">TBD (pre-sampling)</text>
 <text x="560"  y="128" class="hlabel">COLOURWAY</text><text x="655"  y="128" class="hval">Graphite</text>

 <text x="1060" y="92"  class="hlabel">IN-HOUSE</text> <text x="1165" y="92"  class="hval">2026-07-15</text>
 <text x="1060" y="110" class="hlabel">PROTO DUE</text><text x="1165" y="110" class="hval">TBD</text>
 <text x="1060" y="128" class="hlabel">REFERENCE</text><text x="1165" y="128" class="hval">disclosed AI render</text>
</g>

<line x1="60" y1="142" x2="1500" y2="142" stroke="#ddd" stroke-width="1"/>
<rect x="60" y="152" width="66" height="18" fill="#fff" stroke="#b23a3a" stroke-width="1"/>
<text x="93" y="165" text-anchor="middle" fill="#b23a3a" font-size="10" font-weight="700">FABRIC 1</text>
<text x="138" y="166" class="note">Seamless 4-way stretch nylon / elastane · 200–280 gsm · matte Graphite</text>
<text x="60" y="194" class="gtitle">THE CONTOUR SET — longline sports bra + high-waist sculpting legging</text>
<line x1="60" y1="206" x2="1500" y2="206" stroke="#161616" stroke-width="1"/>
<text x="60" y="226" class="warn">DRAFT — drawn to the Contour Set's OWN render (seamless, second-skin). Shaping is KNIT-IN / bonded, not sewn flatlock panels. Specs are size-S TARGETS — confirm and grade on the first proto.</text>

<!-- ===================== BRA ===================== -->
<g>
 <!-- FRONT: scoop-neck longline sports bra -->
 <path class="edge" d="M 175 380 C 176 350 182 316 196 300 L 216 300 C 232 334 268 334 284 300 L 304 300 C 318 316 324 350 325 380 L 325 500 L 175 500 L 175 380 Z"/>
 <rect class="band" x="175" y="500" width="150" height="46" rx="2"/>
 <path class="bind" d="M 181 502 L 319 502"/>
 <path class="bind" d="M 190 438 C 220 468 280 468 310 438"/>
 <text x="250" y="600" text-anchor="middle" class="cap">BRA · FRONT</text>

 <!-- BACK: clean seamless back -->
 <path class="edge" d="M 410 380 C 411 350 418 318 434 306 C 452 312 518 312 536 306 C 552 318 559 350 560 380 L 560 500 L 410 500 L 410 380 Z"/>
 <rect class="band" x="410" y="500" width="150" height="46" rx="2"/>
 <path class="bind" d="M 416 502 L 554 502"/>
 <text x="485" y="600" text-anchor="middle" class="cap">BRA · BACK</text>
</g>

<!-- on-sketch dimensions (bra) -->
<g>
 <line class="dimln" x1="340" y1="500" x2="340" y2="546"/><line class="dimln" x1="336" y1="500" x2="344" y2="500"/><line class="dimln" x1="336" y1="546" x2="344" y2="546"/>
 <text class="dim" x="348" y="527">5</text>
 <text class="dim" x="206" y="292" text-anchor="middle">2.2</text>
</g>

<!-- ===================== LEGGING ===================== -->
<g>
 <!-- FRONT -->
 <path class="edge" d="M 176 648 L 324 648 C 336 664 340 722 338 772 L 320 1004 L 308 1052 L 268 1052 C 262 906 256 822 250 794 C 244 822 238 906 232 1052 L 192 1052 L 180 1004 L 162 772 C 160 722 164 664 176 648 Z"/>
 <rect class="band" x="162" y="648" width="176" height="40" rx="2"/>
 <path class="bind" d="M 166 686 L 334 686"/>
 <path class="bind" d="M 250 776 L 236 802 L 250 830 L 264 802 Z"/>
 <path class="stitch" d="M 194 1034 L 234 1034"/>
 <path class="stitch" d="M 266 1034 L 306 1034"/>
 <text x="250" y="1088" text-anchor="middle" class="cap">LEGGING · FRONT</text>

 <!-- BACK -->
 <path class="edge" d="M 411 648 L 559 648 C 571 664 575 722 573 772 L 555 1004 L 543 1052 L 503 1052 C 497 906 491 822 485 794 C 479 822 473 906 467 1052 L 427 1052 L 415 1004 L 397 772 C 395 722 399 664 411 648 Z"/>
 <rect class="band" x="397" y="648" width="176" height="40" rx="2"/>
 <path class="bind" d="M 401 686 L 569 686"/>
 <path class="stitch" d="M 429 1034 L 469 1034"/>
 <path class="stitch" d="M 501 1034 L 541 1034"/>
 <text x="485" y="1088" text-anchor="middle" class="cap">LEGGING · BACK</text>
</g>

<!-- on-sketch dimensions (legging) -->
<g>
 <text class="dim" x="250" y="640" text-anchor="middle">waist 30 (½, relaxed)</text>
 <text class="dim" x="212" y="1070" text-anchor="middle">11 (½)</text>
 <line class="dimln" x1="605" y1="648" x2="605" y2="1052"/><line class="dimln" x1="601" y1="648" x2="609" y2="648"/><line class="dimln" x1="601" y1="1052" x2="609" y2="1052"/>
 <text class="dim" x="613" y="852">outseam 96</text>
</g>

<!-- ============ CALLOUT MARKERS ============ -->
<!-- Bra -->
<g><line class="lead" x1="250" y1="290" x2="250" y2="300"/><circle class="mrk" cx="250" cy="280" r="9.5"/><text class="mlet" x="250" y="283.8">B</text></g>
<g><line class="lead" x1="110" y1="350" x2="176" y2="350"/><circle class="mrk" cx="100" cy="350" r="9.5"/><text class="mlet" x="100" y="353.8">F</text></g>
<g><line class="lead" x1="357" y1="452" x2="305" y2="452"/><circle class="mrk" cx="367" cy="452" r="9.5"/><text class="mlet" x="367" y="455.8">E</text></g>
<g><line class="lead" x1="625" y1="318" x2="522" y2="312"/><circle class="mrk" cx="635" cy="318" r="9.5"/><text class="mlet" x="635" y="321.8">C</text></g>
<g><line class="lead" x1="625" y1="523" x2="560" y2="523"/><circle class="mrk" cx="635" cy="523" r="9.5"/><text class="mlet" x="635" y="526.8">D</text></g>
<!-- Legging -->
<g><line class="lead" x1="110" y1="666" x2="162" y2="666"/><circle class="mrk" cx="100" cy="666" r="9.5"/><text class="mlet" x="100" y="669.8">A</text></g>
<g><line class="lead" x1="110" y1="820" x2="162" y2="820"/><circle class="mrk" cx="100" cy="820" r="9.5"/><text class="mlet" x="100" y="823.8">G</text></g>
<g><line class="lead" x1="357" y1="802" x2="266" y2="802"/><circle class="mrk" cx="367" cy="802" r="9.5"/><text class="mlet" x="367" y="805.8">H</text></g>
<g><line class="lead" x1="110" y1="1000" x2="196" y2="1000"/><circle class="mrk" cx="100" cy="1000" r="9.5"/><text class="mlet" x="100" y="1003.8">I</text></g>

<!-- ============ CALLOUT KEY (middle column) ============ -->
<text x="700" y="258" class="sec">CALLOUT KEY</text>
<line x1="700" y1="268" x2="1000" y2="268" stroke="#ddd" stroke-width="1"/>
<g>
 <text x="700" y="292" class="klet">A</text><text x="722" y="292" class="ktit">High waistband — knit-in</text>
 <text x="722" y="307" class="ktxt">Smooth high-rise, no drawcord; knit-in power band</text>

 <text x="700" y="331" class="klet">B</text><text x="722" y="331" class="ktit">Neckline &amp; straps — bonded bind</text>
 <text x="722" y="346" class="ktxt">Scoop neckline between set-in straps; bonded / coverstitch bind</text>

 <text x="700" y="370" class="klet">C</text><text x="722" y="370" class="ktit">Back — clean (racer / scoop TBC)</text>
 <text x="722" y="385" class="ktxt">Seamless back, no panel seams; confirm racer vs scoop to sample</text>

 <text x="700" y="409" class="klet">D</text><text x="722" y="409" class="ktit">Longline underband — knit-in</text>
 <text x="722" y="424" class="ktxt">Wide knit-in power band anchors the bra</text>

 <text x="700" y="448" class="klet">E</text><text x="722" y="448" class="ktit">Bust support — molded / bonded</text>
 <text x="722" y="463" class="ktxt">Molded / bonded underbust support; optional pad pocket</text>

 <text x="700" y="487" class="klet">F</text><text x="722" y="487" class="ktit">Armhole — elastic bind</text>
 <text x="722" y="502" class="ktxt">Clean-finish bonded / coverstitch binding</text>

 <text x="700" y="526" class="klet">G</text><text x="722" y="526" class="ktit">Seamless body — no side seams</text>
 <text x="722" y="541" class="ktxt">Circular / engineered knit; compression + shaping knit-in</text>

 <text x="700" y="565" class="klet">H</text><text x="722" y="565" class="ktit">Gusset — knit-in</text>
 <text x="722" y="580" class="ktxt">Knit-in / bonded diamond gusset; no bartacks (seamless route)</text>

 <text x="700" y="604" class="klet">I</text><text x="722" y="604" class="ktit">Ankle hem — clean</text>
 <text x="722" y="619" class="ktxt">Laser-cut raw edge or narrow coverstitch; opaque, recovers flat</text>
</g>

<!-- ============ SHOWCASE REFERENCE (middle column, lower) ============ -->
<text x="700" y="686" class="sec">SHOWCASE REFERENCE</text>
<text x="700" y="701" class="ktxt">AI render (openly disclosed) — the seamless look this flat is drawn to</text>
<rect x="700" y="712" width="150" height="192" fill="#f1efea" stroke="#161616" stroke-width="1.2"/>
<text x="775" y="812" text-anchor="middle" class="ktxt" fill="#b0a99e">image loads online</text>
<image x="701" y="713" width="148" height="190" preserveAspectRatio="xMidYMid slice" href="https://cdn.shopify.com/s/files/1/0726/0468/0275/files/hf_20260713_151351_737f08ab-3002-4854-a30c-a6e0cc54c546.png?v=1783955826"/>
<rect x="700" y="712" width="150" height="192" fill="none" stroke="#161616" stroke-width="1.2"/>
<text x="864" y="732" class="ktit">The Contour Set</text>
<text x="864" y="748" class="ktxt">$240 · Gym / Collection 02</text>
<text x="864" y="764" class="ktxt" fill="#b23a3a">"seamless compression knit,</text>
<text x="864" y="777" class="ktxt" fill="#b23a3a">second-skin fit"</text>

<!-- ============ LINE KEY (right column top) ============ -->
<text x="1080" y="258" class="sec">LINE KEY</text>
<line x1="1080" y1="268" x2="1300" y2="268" stroke="#ddd" stroke-width="1"/>
<line x1="1080" y1="286" x2="1116" y2="286" class="edge"/><text x="1126" y="290" class="lval">garment edge</text>
<line x1="1080" y1="306" x2="1116" y2="306" class="bind"/><text x="1126" y="310" class="lval">bonded / elastic edge</text>
<rect class="band" x="1080" y="318" width="36" height="12"/><text x="1126" y="328" class="lval">knit-in power band</text>
<line x1="1080" y1="344" x2="1116" y2="344" class="stitch"/><text x="1126" y="348" class="lval">coverstitch hem</text>

<!-- ============ SPECS TABLE (right column) ============ -->
<text x="1080" y="392" class="sec">SPECS — SIZE S · cm · TARGET</text>
<line x1="1080" y1="402" x2="1500" y2="402" stroke="#ddd" stroke-width="1"/>
<text x="1080" y="420" class="tsub">BRA</text>
<g>
 <text x="1080" y="438" class="trow">Underbust — relaxed / stretched</text><text x="1500" y="438" class="tval">66 / 78</text>
 <text x="1080" y="454" class="trow">Bust (fullest) — relaxed</text><text x="1500" y="454" class="tval">80</text>
 <text x="1080" y="470" class="trow">Cup depth</text><text x="1500" y="470" class="tval">14</text>
 <text x="1080" y="486" class="trow">Bra length (HPS–band)</text><text x="1500" y="486" class="tval">30</text>
 <text x="1080" y="502" class="trow">Neckline drop (from HPS)</text><text x="1500" y="502" class="tval">12</text>
 <text x="1080" y="518" class="trow">Underband height</text><text x="1500" y="518" class="tval">5</text>
 <text x="1080" y="534" class="trow">Armhole (curve)</text><text x="1500" y="534" class="tval">20</text>
 <text x="1080" y="550" class="trow">Strap width</text><text x="1500" y="550" class="tval">2.2</text>
</g>
<text x="1080" y="574" class="tsub">LEGGING</text>
<g>
 <text x="1080" y="592" class="trow">Waistband — relaxed / stretched</text><text x="1500" y="592" class="tval">60 / 78</text>
 <text x="1080" y="608" class="trow">Waistband height</text><text x="1500" y="608" class="tval">8</text>
 <text x="1080" y="624" class="trow">High hip</text><text x="1500" y="624" class="tval">80</text>
 <text x="1080" y="640" class="trow">Hip</text><text x="1500" y="640" class="tval">90</text>
 <text x="1080" y="656" class="trow">Front rise</text><text x="1500" y="656" class="tval">27</text>
 <text x="1080" y="672" class="trow">Back rise</text><text x="1500" y="672" class="tval">36</text>
 <text x="1080" y="688" class="trow">Thigh — relaxed</text><text x="1500" y="688" class="tval">52</text>
 <text x="1080" y="704" class="trow">Knee</text><text x="1500" y="704" class="tval">36</text>
 <text x="1080" y="720" class="trow">Leg opening (ankle)</text><text x="1500" y="720" class="tval">22</text>
 <text x="1080" y="736" class="trow">Inseam</text><text x="1500" y="736" class="tval">66</text>
 <text x="1080" y="752" class="trow">Outseam</text><text x="1500" y="752" class="tval">96</text>
</g>
<line x1="1080" y1="766" x2="1500" y2="766" stroke="#eee" stroke-width="1"/>
<text x="1080" y="782" class="ktxt">Full girths unless "½" noted. Knit — measure proto relaxed AND</text>
<text x="1080" y="795" class="ktxt">stretched; recovery is the fit. Grade from size S.</text>

<!-- ============ FOOTER ============ -->
<line x1="60" y1="1170" x2="1500" y2="1170" stroke="#ddd" stroke-width="1"/>
<text x="60" y="1192" class="warn">CATEGORY NOTE — Seamless compression knit = a circular-knit / bonded supply chain (engineered-zone knitting, bonding, laser-cut edges), distinct from cut-and-sew activewear (which shows flatlock sculpt seams — see v01). Decide the route before pattern.</text>
<text x="60" y="1210" class="note">The set is one SKU (bra + legging). Shaping is knit-in — specs are size-S targets, not a graded spec. A patternmaker validates + grades before sampling.</text>
</svg>
