<svg xmlns="http://www.w3.org/2000/svg" viewBox="0 0 1480 1000" font-family="Helvetica Neue, Arial, sans-serif">
<style>
 .edge{fill:#fff;stroke:#161616;stroke-width:2.1;stroke-linejoin:round;stroke-linecap:round;}
 .seam{fill:none;stroke:#161616;stroke-width:1.3;}
 .seam2{fill:none;stroke:#161616;stroke-width:1;}
 .stitch{fill:none;stroke:#161616;stroke-width:1;stroke-dasharray:5 3;}
 .crease{fill:none;stroke:#9a9a9a;stroke-width:1;stroke-dasharray:9 3 2 3;}
 .hem{fill:none;stroke:#a6a6a6;stroke-width:1;stroke-dasharray:3 3;}
 .bar{fill:#161616;}
 .lead{stroke:#b23a3a;stroke-width:0.9;fill:none;}
 .mrk{fill:#161616;stroke:#fcfbf9;stroke-width:1.3;}
 .mlet{fill:#fff;font-size:11px;font-weight:700;text-anchor:middle;}
 .cap{fill:#555;font-size:12px;letter-spacing:.18em;}
 .h1{fill:#111;font-size:22px;font-weight:600;}
 .sub{fill:#666;font-size:12px;}
 .note{fill:#444;font-size:10.5px;} .warn{fill:#b23a3a;font-size:11px;font-weight:600;}
 .sec{fill:#111;font-size:12px;font-weight:700;letter-spacing:.06em;}
 .klet{fill:#b23a3a;font-size:11px;font-weight:700;}
 .ktit{fill:#111;font-size:11px;font-weight:600;}
 .ktxt{fill:#555;font-size:10px;}
 .mkey{fill:#111;font-size:10.5px;font-weight:600;} .mval{fill:#333;font-size:10.5px;}
 .mrev{fill:#b23a3a;font-size:10.5px;font-weight:600;}
 .lval{fill:#333;font-size:10.5px;}
</style>
<rect x="0" y="0" width="1480" height="1000" fill="#fcfbf9"/>

<!-- ============ HEADER ============ -->
<text x="60" y="48" class="h1">THE OBSIDIAN TROUSER — TECHNICAL FLAT</text>
<text x="60" y="70" class="sub">Style TR-001 · Autumn Capsule 01 · Womenswear high-waist WIDE-LEG · Base size S · Colourway Obsidian · Flat v02</text>
<line x1="60" y1="86" x2="1420" y2="86" stroke="#161616" stroke-width="1"/>
<text x="60" y="106" class="warn">DRAFT — not to scale, not graded. Communicates design intent + construction from sheets 01/03/04. A patternmaker must validate &amp; grade before pattern cutting (sheet 08).</text>

<!-- ============ FRONT ============ -->
<g>
 <path class="edge" d="M 250 196 L 452 196 C 468 210 478 252 478 306 L 502 852 L 368 852 C 364 620 358 470 351 375 C 344 470 338 620 334 852 L 198 852 L 220 306 C 220 252 232 210 250 196 Z"/>
 <path class="seam" d="M 250 230 L 452 230"/>
 <!-- fly: J-stitch, left-over-right -->
 <path class="stitch" d="M 358 232 L 358 352 C 358 368 346 372 337 368"/>
 <rect class="bar" x="333" y="365" width="7" height="3"/>
 <path class="seam2" d="M 351 352 L 351 375"/>
 <!-- slant pockets + bartacks -->
 <path class="seam" d="M 252 252 L 298 330"/>
 <path class="seam" d="M 450 252 L 404 330"/>
 <rect class="bar" x="249" y="250" width="6" height="3"/>
 <rect class="bar" x="295" y="328" width="6" height="3"/>
 <rect class="bar" x="447" y="250" width="6" height="3"/>
 <rect class="bar" x="401" y="328" width="6" height="3"/>
 <!-- pressed creases (one per leg) -->
 <path class="crease" d="M 274 312 L 266 844"/>
 <path class="crease" d="M 426 312 L 434 844"/>
 <!-- hem folds -->
 <path class="hem" d="M 198 826 L 334 826"/>
 <path class="hem" d="M 368 826 L 502 826"/>
 <text x="350" y="888" text-anchor="middle" class="cap">FRONT</text>
</g>

<!-- ============ BACK ============ -->
<g>
 <path class="edge" d="M 580 196 L 782 196 C 798 210 808 252 808 306 L 832 852 L 698 852 C 694 620 688 470 681 375 C 674 470 668 620 664 852 L 528 852 L 550 306 C 550 252 562 210 580 196 Z"/>
 <path class="seam" d="M 580 230 L 782 230"/>
 <!-- centre-back seam: double-stitched through curve -->
 <path class="seam" d="M 681 198 L 681 375"/>
 <path class="stitch" d="M 687 232 L 687 368"/>
 <!-- back waist darts (2 per side) -->
 <path class="seam2" d="M 611 232 L 617 300 L 623 232"/>
 <path class="seam2" d="M 641 232 L 646 296 L 651 232"/>
 <path class="seam2" d="M 711 232 L 716 296 L 721 232"/>
 <path class="seam2" d="M 739 232 L 745 300 L 751 232"/>
 <!-- waistband curtain / brand label at CB (inside) -->
 <rect x="669" y="210" width="24" height="12" fill="none" stroke="#9a9a9a" stroke-width="1"/>
 <!-- creases -->
 <path class="crease" d="M 604 312 L 596 844"/>
 <path class="crease" d="M 755 312 L 765 844"/>
 <path class="hem" d="M 528 826 L 664 826"/>
 <path class="hem" d="M 698 826 L 832 826"/>
 <text x="681" y="888" text-anchor="middle" class="cap">BACK</text>
</g>

<!-- ============ CALLOUT MARKERS ============ -->
<!-- FRONT left markers -->
<g><line class="lead" x1="196" y1="212" x2="250" y2="212"/><circle class="mrk" cx="186" cy="212" r="9.5"/><text class="mlet" x="186" y="215.8">A</text></g>
<g><line class="lead" x1="196" y1="300" x2="276" y2="300"/><circle class="mrk" cx="186" cy="300" r="9.5"/><text class="mlet" x="186" y="303.8">C</text></g>
<g><line class="lead" x1="196" y1="470" x2="272" y2="470"/><circle class="mrk" cx="186" cy="470" r="9.5"/><text class="mlet" x="186" y="473.8">D</text></g>
<g><line class="lead" x1="196" y1="690" x2="206" y2="690"/><circle class="mrk" cx="186" cy="690" r="9.5"/><text class="mlet" x="186" y="693.8">E</text></g>
<g><line class="lead" x1="196" y1="826" x2="266" y2="826"/><circle class="mrk" cx="186" cy="826" r="9.5"/><text class="mlet" x="186" y="829.8">G</text></g>
<!-- FRONT right-of-view markers -->
<g><line class="lead" x1="522" y1="300" x2="360" y2="300"/><circle class="mrk" cx="532" cy="300" r="9.5"/><text class="mlet" x="532" y="303.8">B</text></g>
<g><line class="lead" x1="522" y1="620" x2="360" y2="620"/><circle class="mrk" cx="532" cy="620" r="9.5"/><text class="mlet" x="532" y="623.8">F</text></g>
<!-- BACK right markers -->
<g><line class="lead" x1="846" y1="216" x2="693" y2="216"/><circle class="mrk" cx="856" cy="216" r="9.5"/><text class="mlet" x="856" y="219.8">H</text></g>
<g><line class="lead" x1="846" y1="270" x2="716" y2="270"/><circle class="mrk" cx="856" cy="270" r="9.5"/><text class="mlet" x="856" y="273.8">K</text></g>
<g><line class="lead" x1="846" y1="360" x2="687" y2="360"/><circle class="mrk" cx="856" cy="360" r="9.5"/><text class="mlet" x="856" y="363.8">I</text></g>
<g><line class="lead" x1="846" y1="470" x2="762" y2="470"/><circle class="mrk" cx="856" cy="470" r="9.5"/><text class="mlet" x="856" y="473.8">J</text></g>

<!-- ============ CALLOUT KEY (column 1) ============ -->
<text x="912" y="150" class="sec">CALLOUT KEY</text>
<line x1="912" y1="160" x2="1180" y2="160" stroke="#ddd" stroke-width="1"/>
<g>
 <text x="912" y="184" class="klet">A</text><text x="934" y="184" class="ktit">Waistband — 4 cm (POM 11)</text>
 <text x="934" y="198" class="ktxt">Concealed hook &amp; bar + interior button (Con 7)</text>

 <text x="912" y="225" class="klet">B</text><text x="934" y="225" class="ktit">Fly — left-over-right</text>
 <text x="934" y="239" class="ktxt">J-stitch 6 mm, bartack base · fly 15 cm (POM 12)</text>

 <text x="912" y="266" class="klet">C</text><text x="934" y="266" class="ktit">Slant front pocket</text>
 <text x="934" y="280" class="ktxt">Cotton bag, understitched, bartack ends (Con 5)</text>

 <text x="912" y="307" class="klet">D</text><text x="934" y="307" class="ktit">Pressed front crease</text>
 <text x="934" y="321" class="ktxt">Set sharp; use press cloth — wool shines (Con 11)</text>

 <text x="912" y="348" class="klet">E</text><text x="934" y="348" class="ktit">Side seam — pressed OPEN</text>
 <text x="934" y="362" class="ktxt">Plain seam, edges overlocked separately (Con 2)</text>

 <text x="912" y="389" class="klet">F</text><text x="934" y="389" class="ktit">Inseam — pressed open</text>
 <text x="934" y="403" class="ktxt">Plain seam, edges overlocked · 1.0 cm SA (Con 3)</text>

 <text x="912" y="430" class="klet">G</text><text x="934" y="430" class="ktit">Blind hem — 4 cm allowance</text>
 <text x="934" y="444" class="ktxt">Must not show on face; hand finish (Con 9)</text>

 <text x="912" y="471" class="klet">H</text><text x="934" y="471" class="ktit">Waistband curtain + labels (CB)</text>
 <text x="934" y="485" class="ktxt">Woven brand + size label, inside WB (BOM 9/10)</text>

 <text x="912" y="512" class="klet">I</text><text x="934" y="512" class="ktit">Centre-back seam</text>
 <text x="934" y="526" class="ktxt">Double-stitched; 1.5 cm SA, do NOT trim (Con 4)</text>

 <text x="912" y="553" class="klet">J</text><text x="934" y="553" class="ktit">No back pockets</text>
 <text x="934" y="567" class="ktxt">Clean back by design intent (sheet 01)</text>

 <text x="912" y="594" class="klet">K</text><text x="934" y="594" class="ktit">Back waist darts — 2 per side</text>
 <text x="934" y="608" class="ktxt">Take the waist→hip drop; front clean, no pleats</text>
</g>

<!-- ============ LINE KEY + MEASURES + FABRIC (column 2) ============ -->
<text x="1240" y="150" class="sec">LINE KEY</text>
<line x1="1240" y1="160" x2="1440" y2="160" stroke="#ddd" stroke-width="1"/>
<line x1="1240" y1="180" x2="1276" y2="180" class="edge"/><text x="1286" y="184" class="lval">cut edge / seam</text>
<line x1="1240" y1="200" x2="1276" y2="200" class="stitch"/><text x="1286" y="204" class="lval">topstitch line</text>
<line x1="1240" y1="220" x2="1276" y2="220" class="crease"/><text x="1286" y="224" class="lval">pressed crease / fold</text>
<line x1="1240" y1="240" x2="1276" y2="240" class="hem"/><text x="1286" y="244" class="lval">hem fold</text>
<rect class="bar" x="1240" y="256" width="10" height="4"/><text x="1286" y="264" class="lval">bartack</text>

<text x="1240" y="300" class="sec">KEY MEASURES</text>
<text x="1240" y="316" class="ktxt">size S · cm · ½ unless noted</text>
<line x1="1240" y1="326" x2="1440" y2="326" stroke="#ddd" stroke-width="1"/>
<g>
 <text x="1240" y="346" class="mkey">Waist relaxed</text><text x="1440" y="346" text-anchor="end" class="mval">34.0</text>
 <text x="1240" y="364" class="mkey">High hip</text><text x="1440" y="364" text-anchor="end" class="mval">42.0</text>
 <text x="1240" y="382" class="mkey">Hip</text><text x="1440" y="382" text-anchor="end" class="mval">48.8</text>
 <text x="1240" y="400" class="mkey">Front rise</text><text x="1440" y="400" text-anchor="end" class="mval">27.1</text>
 <text x="1240" y="418" class="mkey">Back rise</text><text x="1440" y="418" text-anchor="end" class="mval">36.6</text>
 <text x="1240" y="436" class="mkey">Thigh</text><text x="1440" y="436" text-anchor="end" class="mval">29.8</text>
 <text x="1240" y="454" class="mkey">Knee ▲</text><text x="1440" y="454" text-anchor="end" class="mrev">26.5</text>
 <text x="1240" y="472" class="mkey">Leg opening ▲</text><text x="1440" y="472" text-anchor="end" class="mrev">28.0</text>
 <text x="1240" y="490" class="mkey">Inseam (full)</text><text x="1440" y="490" text-anchor="end" class="mval">78.0</text>
 <text x="1240" y="508" class="mkey">Outseam (full)</text><text x="1440" y="508" text-anchor="end" class="mval">105.1</text>
 <text x="1240" y="526" class="mkey">Waistband height</text><text x="1440" y="526" text-anchor="end" class="mval">4.0</text>
 <text x="1240" y="544" class="mkey">Fly length</text><text x="1440" y="544" text-anchor="end" class="mval">15.0</text>
</g>
<text x="1240" y="564" class="mrev">▲ wide-leg target (supersedes v01 taper)</text>

<text x="1240" y="602" class="sec">FABRIC / COLOUR</text>
<line x1="1240" y1="612" x2="1440" y2="612" stroke="#ddd" stroke-width="1"/>
<text x="1240" y="632" class="note">Wool-blend suiting, matte, mech. stretch</text>
<text x="1240" y="648" class="note">62/34/4 Wool/Poly/Elastane · 250–270 gsm</text>
<text x="1240" y="664" class="note">Obsidian — Pantone 19-4007 TCX, no sheen</text>
<text x="1240" y="680" class="note">Pocketing: Bone (contrast, deliberate)</text>

<text x="1240" y="720" class="sec">NOTES</text>
<line x1="1240" y1="730" x2="1440" y2="730" stroke="#ddd" stroke-width="1"/>
<text x="1240" y="750" class="note">Back darts (2 per side) take the</text>
<text x="1240" y="766" class="note">waist→hip drop; front clean (no pleats).</text>
<text x="1240" y="786" class="note">Belt: showcase styles a leather belt, but</text>
<text x="1240" y="802" class="note">waistband is concealed hook &amp; bar, no</text>
<text x="1240" y="818" class="note">loops by intent — confirm loops vs none.</text>
<text x="1240" y="838" class="note">Grade &amp; true proportions live in the</text>
<text x="1240" y="854" class="note">workbook (03 POM, 04 CONSTRUCTION).</text>

<!-- ============ SHOWCASE REFERENCE ============ -->
<text x="912" y="640" class="sec">SHOWCASE REFERENCE</text>
<text x="912" y="655" class="ktxt">AI render (openly disclosed) — the look this flat is drawn to</text>
<rect x="912" y="666" width="146" height="186" fill="#f1efea" stroke="#161616" stroke-width="1.2"/>
<text x="985" y="762" text-anchor="middle" class="ktxt" fill="#b0a99e">image loads online</text>
<image x="913" y="667" width="144" height="184" preserveAspectRatio="xMidYMid slice" href="https://cdn.shopify.com/s/files/1/0726/0468/0275/files/hf_20260712_091438_0f50da26-d92a-45d1-aabc-ded6a06a4a7a.png?v=1783954169"/>
<rect x="912" y="666" width="146" height="186" fill="none" stroke="#161616" stroke-width="1.2"/>
<text x="1070" y="686" class="ktit">The Obsidian Trouser</text>
<text x="1070" y="702" class="ktxt">$580 · Autumn Capsule</text>
<text x="1070" y="717" class="ktxt">High-waist · wide-leg</text>

<!-- ============ FOOTER ============ -->
<line x1="60" y1="914" x2="1420" y2="914" stroke="#ddd" stroke-width="1"/>
<text x="60" y="936" class="warn">SILHOUETTE NOTE — Drawn WIDE-LEG to match the showcase. The v01 workbook POM (knee 22.6 / leg opening 19.8, ½) is a TAPERED leg; the ▲ values above are the wide-leg target. Confirm on the toile before grading.</text>
</svg>
